<svg xmlns="http://www.w3.org/2000/svg" viewBox="0 0 1080 1080">
    <defs>
        <style>
            .cls-1 {
                fill: none;
                stroke: #000;
                stroke-linecap: round;
                stroke-linejoin: round;
                stroke-width: 2px;
            }
        </style>
    </defs>
    <title>Artboard 28 copy 6</title>
    <g id="Layer_7" data-name="Layer 7">
        <path class="cls-1"
            d="M856.56,854.3c1.53,1.41-.2,3.07-1.66,3.27-5.11.71-9.59,4.19-15.09,3.12-5.35-1.05-10.23-2.07-12.31-8.38-1.41-4.26-5.94-4.88-9.92-5a119.32,119.32,0,0,1-15.1-1.74,20.36,20.36,0,0,1-4.24-6.69c-.88-2.2-.51-4.64-1.4-6.24a137,137,0,0,1-18-16.75c-8.71-9.44-16.75-19.43-24.44-29.62-5.1-6.76-11.11-12.49-17.14-18.14s-13.78-9.75-22.91-9c-5.56.46-10.67-1.92-15.9-3.12-9.81-2.24-19.23-6-28.62-9.74-3.16-1.26-6.91-1-10.09-1.45-1.19,1.51-.75,2.73-.73,3.84a518.48,518.48,0,0,1-2.42,52.86c-.72,8-1.37,16-2.24,23.9-.41,3.74,1.24,7.09,2.25,10.45,1.91,6.34,1.53,10.41-3.58,14.19a41.31,41.31,0,0,0-7.08,6.37c-1.84,2.17-2.38,5-4.14,7.09,4.29,3.76,9.47,1.57,14.39,1.8-2.88,3.65-6.89,4.25-10.64,5.41l-1.25.42a25.27,25.27,0,0,0,5.53,1.37c4,.09,7.51-1.72,10.64-3,2.75.31-4.63,6.38-5.57,6.85,1.15-.27,7.77-.9,8.92-1.18a7.08,7.08,0,0,1-2.32,2.27,54.15,54.15,0,0,1-18.06,3.8c-3.6.2-8.89-.93-10.9-5.89a10,10,0,0,0-2.75-3.59c-5.26-1-9.89-2.61-13.63-6.46-5.29-5.44-11.52-9.76-17.55-14.33-7.29-5.53-13.41-12.26-19.46-19.15-6.37-7.25-12.59-14.63-18.21-22.42-6.78-9.39-13.84-18.65-19.38-28.88A92.72,92.72,0,0,1,535,766.7a60.25,60.25,0,0,1-13.59-1.53c-9.94-2.46-18.78-7.22-27.58-12a22.81,22.81,0,0,0-11.95-3.23c-1.42,8.78-4.21,17.39-4,26.42a63.5,63.5,0,0,1-1.13,12.55c-.87,4.85-.17,9.31.68,13.88,1.73,9.29-1.37,17.49-12.19,17.71a11.06,11.06,0,0,0-5.87,1.62c1.16,10.74,9.48,10.9,19.71,9.62-1.25,2.86-2.15,3.58-5.87,5-2.32.92-5.05.39-7.27,2,.61,2.33,2.63,2.9,4.48,3.9,2.24-.6,6.89-4.81,9.5-4.32.11,1.16-3.27,4.25-4,4.6l7.36-.36c-1.19,2.46-3.56,3.27-5.89,3.72-6.35,1.25-12.76,2.23-19.28,1.72a10.22,10.22,0,0,1-7.14-3.76c-3-3.47-5.61-7.18-6.28-12.35a8.64,8.64,0,0,1-7.92-2c-5.6-4.59-12.09-5.55-18.93-5.34-1.66,0-3-1-4.51-.93-5.35-4.23-6.33-10-6-16.31.16-3-.86-5.44-2.43-8-5.55-9.12-12.3-17.52-16.81-27.24-3.12-6.74-6-13.63-7.55-21-.51-2.4-1.69-4.62-1.39-8-4,3.46-3.3,7.78-4.52,11.35a4.91,4.91,0,0,0,0,1.67c.6,13-1.5,13.64-11.74,20.55-.16,2.53.52,4.63,2.82,5.8,2.09-.57,3.85-1.82,6-2-.55,7.24-5.21,10.29-12.21,8a19.59,19.59,0,0,1-3.24-5.39,6.43,6.43,0,0,0-3.85-.89l2.09.84c-1.86,5-5.79,5.93-10.86,5.32-1.9-.81-2.62-3.06-3.67-5-5.94,1.7-7.66.59-8.54-5.45-1.93-.51-3.88-.92-5.84-1.33-5.58-1.17-9.55-4-12-9.87-3.41-8.24-2.29-16-.51-24.52-3.08-5.69-6.36-12-10.48-18.17a59.82,59.82,0,0,0-19,1.21,43.08,43.08,0,0,1-6.74.71l-.84-.42c-5.77-1.55-11.66-2.44-17.24-4.93-8.7-3.9-16.3-10.09-25.57-12.59-6-1.6-11-4.73-15.89-8.11-9.13-6.3-14.37-16-20.46-24.79-1.38-2-2.5-4-4.75-4.91-4.31-1.69-8.81-3.14-13.41-3.3-6.7-.23-13.31-1.46-20.17-.3-5.71,1-11.73.52-17.57.1-5-.36-10-1.35-13.44-5.77-5-6.46-6.46-13.89-5.83-21.81.34-4.29-4-11.19-8-12.16a4.27,4.27,0,0,0-2.52.41c-8.08,2.92-20-2.67-23.59-9.6a29.46,29.46,0,0,0-6.4-7.82c-2.73-2.52-7-4.59-6.69-9.35-.92-.25-1.84.34-2.31-.51-3-5.37-5.69-10.67-6.07-17.18-.41-7.08-.86-13.65,6-17.49,0-8.25,0-15.94,0-23.63,0-.14.26-.28.4-.42l.42-.83c-.44-4.25.62-8.39.84-12.59l.42-.84a5.64,5.64,0,0,0,.84-3.77c-2.87-.39-4.91-2.16-6.69-4.21-4.29-4.92-3.12-10.1-.92-15.53,2.62-6.47,7.81-11,12-16.18,6.55-8,12.17-16.74,19-24.62,4.79-5.56,10.39-10.07,15.74-14.89,4.26-3.85,9.39-6.87,12.86-11.46,6.86-9.09,15.56-16.18,24.5-22.89,6.57-4.92,13.23-9.78,19.91-14.58,9-6.45,18.27-11.66,29.07-14.09,3.24-.73,6.46-1.59,9.65-2.51a55.7,55.7,0,0,1,30.17.15c10.47,2.82,20.86,4,31.49,1.92,10.13-2,19.17-7,28-11.87a284.15,284.15,0,0,1,31.11-15c10.41-4.19,21.2-5.69,32.32-5.86,21.56-.32,43,2.44,64.61,1.32,9.49-.49,18.2-3.62,26.37-8.08,6.94-3.78,13.61-8.11,20.14-12.56,5.29-3.6,11.19-5.89,16.83-8.75l.42-.84c9.28-2.15,17.94-6.52,27.67-7.22s19.73-1.67,29.35,1c12.07,3.35,24.14,6.49,35,13.58,8.72,5.71,16.92,11.65,23.43,19.86,2.32,2.92,4.8,6.31,8,7.83a139.74,139.74,0,0,0,27.23,9.63q14.38,3.42,28.93,6.33c4.46.9,9,2.3,13.82,1.49a101.59,101.59,0,0,1,21.38-1.67,80.33,80.33,0,0,0,18-1.41c15.31-2.75,30.41-2.93,45.33,2.15,8.91,3,16.66,8.12,23.84,13.94,12.06,9.78,24.23,19.38,37.42,27.57,12.49,7.75,24.34,16.37,36.05,25.21l.84.84c3.58,3.1,8.17,4.55,12.28,6.47A93.67,93.67,0,0,1,904.5,465c2.31,2.14,4,5,7,6.4a211.14,211.14,0,0,1,29.39,16.73c12.22,8.25,22.11,18.48,28.52,31.9a125.57,125.57,0,0,1,9.1,26,138.49,138.49,0,0,1,3.1,46.55c-.51,4.47-1.19,9,.79,13.41l.42.84c1.4,6.72,2.39,13.54,4.28,20.11,3.29,11.43,4.69,23.24,5.84,34.88s6.64,21.46,9.62,32.26a6.64,6.64,0,0,0,1.26,2.5c3.51,4.22,4.27,8.85,2,13.86-2,4.51-4.15,9-6.3,13.42a2.8,2.8,0,0,1-2.07,1.27l2.1-.42,5.06.6c-1.21,1.16-1.86,2.34-3.39,1.5l-.39-.45c-.61,1.87-2.52,2-4.84,3,3.51,1.42,5.73,3.64,9,2.52l.84-.42c1.15-.75,2.2-1.78,3.73-1.28.51,1-.9,1.26-.79,2.12l-1.26,1.26a23.11,23.11,0,0,1-18.86,1.21,6.64,6.64,0,0,0-5.52,0c-4.43,1.9-9.05,1.49-13.81.61-10-1.85-18.17-7.55-26.88-12.17-3-1.6-5.59-3.85-9.29-4.93-4.24,1.56-8.31,4.66-13.27,6.23-11.62,3.68-23.24,4.17-35.3,3-12.42-1.25-24.5-4.42-37.18-5.4-3.49,2.75-4.76,7.73-8.78,10.46-.35,12.68-1.79,25.08-.62,37.57.87,9.2.12,18.47,1.2,27.7.91,7.74,1.72,15.16,9.24,19.84a6.33,6.33,0,0,1,3.13,3.87c-.31,9.65-5.4,17.41-11.23,25.13,2.31.82,8,.16,10-1.28,1,1-2.67,3.3-5.19,4.31l7.66,1.18c-1.29,1.72-8.84.23-10.14,1.91a12.36,12.36,0,0,0,3.37,1.85C850.24,856,855.2,854.79,856.56,854.3Z" />
    </g>
</svg>